HIERARCHY
ROOT Hips
{
	OFFSET 0.000000 0.000000 0.000000
	CHANNELS 6 Xposition Yposition Zposition Xrotation Yrotation Zrotation
	JOINT LeftUpLeg_virtual
	{
		OFFSET 0.000000 0.000000 0.000000
		CHANNELS 3 Xrotation Yrotation Zrotation
		JOINT LeftUpLeg
		{
			OFFSET 11.394100 -6.187798 -0.413800
			CHANNELS 3 Xrotation Yrotation Zrotation
			JOINT LeftLeg
			{
				OFFSET 0.430247 -32.302673 3.732800
				CHANNELS 3 Xrotation Yrotation Zrotation
				JOINT LeftFoot
				{
					OFFSET -0.430247 -48.264931 -6.423300
					CHANNELS 3 Xrotation Yrotation Zrotation
					JOINT LeftToeBase
					{
						OFFSET 4.230900 -16.068199 23.438400
						CHANNELS 3 Xrotation Yrotation Zrotation
						JOINT LeftToe_End
						{
							OFFSET 4.510700 0.695400 19.974600
							CHANNELS 3 Xrotation Yrotation Zrotation
							End Site
							{
								OFFSET 0 0 0
							}
						}
					}
				}
			}
		}
	}
	JOINT RightUpLeg_virtual
	{
		OFFSET 0.000000 0.000000 0.000000
		CHANNELS 3 Xrotation Yrotation Zrotation
		JOINT RightUpLeg
		{
			OFFSET -11.333700 -6.187798 -0.413800
			CHANNELS 3 Xrotation Yrotation Zrotation
			JOINT RightLeg
			{
				OFFSET -0.430392 -32.302628 3.733000
				CHANNELS 3 Xrotation Yrotation Zrotation
				JOINT RightFoot
				{
					OFFSET 0.430392 -48.264973 -6.423500
					CHANNELS 3 Xrotation Yrotation Zrotation
					JOINT RightToeBase
					{
						OFFSET -4.230900 -16.068199 23.438400
						CHANNELS 3 Xrotation Yrotation Zrotation
						JOINT RightToe_End
						{
							OFFSET -4.510700 0.695400 19.974600
							CHANNELS 3 Xrotation Yrotation Zrotation
							End Site
							{
								OFFSET 0 0 0
							}
						}
					}
				}
			}
		}
	}
	JOINT Spine_virtual
	{
		OFFSET 0.000000 0.000000 0.000000
		CHANNELS 3 Xrotation Yrotation Zrotation
		JOINT Spine
		{
			OFFSET -0.002400 12.777504 0.315300
			CHANNELS 3 Xrotation Yrotation Zrotation
			JOINT Spine1
			{
				OFFSET -0.002067 5.816869 0.032633
				CHANNELS 3 Xrotation Yrotation Zrotation
				JOINT Spine1_split
				{
					OFFSET -0.002067 5.816869 0.032633
					CHANNELS 3 Xrotation Yrotation Zrotation
					JOINT Spine2
					{
						OFFSET -0.002067 5.816869 0.032633
						CHANNELS 3 Xrotation Yrotation Zrotation
						JOINT Neck_virtual
						{
							OFFSET 0.000000 0.000000 0.000000
							CHANNELS 3 Xrotation Yrotation Zrotation
							JOINT Neck
							{
								OFFSET -0.003700 21.199493 -0.826900
								CHANNELS 3 Xrotation Yrotation Zrotation
								JOINT Head
								{
									OFFSET 0.000000 20.442200 4.834800
									CHANNELS 3 Xrotation Yrotation Zrotation
									JOINT HeadTop_End
									{
										OFFSET 0.000000 34.668396 4.968400
										CHANNELS 3 Xrotation Yrotation Zrotation
										End Site
										{
											OFFSET 0 0 0
										}
									}
								}
							}
						}
						JOINT LeftShoulder_virtual
						{
							OFFSET 0.000000 0.000000 0.000000
							CHANNELS 3 Xrotation Yrotation Zrotation
							JOINT LeftShoulder
							{
								OFFSET 3.288150 8.794197 -1.372250
								CHANNELS 3 Xrotation Yrotation Zrotation
								JOINT LeftShoulder_split
								{
									OFFSET 3.288150 8.794197 -1.372250
									CHANNELS 3 Xrotation Yrotation Zrotation
									JOINT LeftArm
									{
										OFFSET 11.953299 -2.279007 -0.146200
										CHANNELS 3 Xrotation Yrotation Zrotation
										JOINT LeftForeArm
										{
											OFFSET 18.448900 0.000000 0.000000
											CHANNELS 3 Xrotation Yrotation Zrotation
											JOINT LeftHand
											{
												OFFSET 29.527798 0.000000 0.000000
												CHANNELS 3 Xrotation Yrotation Zrotation
												End Site
												{
													OFFSET 0 0 0
												}
											}
										}
									}
								}
							}
						}
						JOINT RightShoulder_virtual
						{
							OFFSET 0.000000 0.000000 0.000000
							CHANNELS 3 Xrotation Yrotation Zrotation
							JOINT RightShoulder
							{
								OFFSET -3.249400 8.794197 -1.372250
								CHANNELS 3 Xrotation Yrotation Zrotation
								JOINT RightShoulder_split
								{
									OFFSET -3.249400 8.794197 -1.372250
									CHANNELS 3 Xrotation Yrotation Zrotation
									JOINT RightArm
									{
										OFFSET -11.953299 -2.279007 -0.146200
										CHANNELS 3 Xrotation Yrotation Zrotation
										JOINT RightForeArm
										{
											OFFSET -18.448900 0.000000 0.000000
											CHANNELS 3 Xrotation Yrotation Zrotation
											JOINT RightHand
											{
												OFFSET -29.527802 0.000000 0.000000
												CHANNELS 3 Xrotation Yrotation Zrotation
												End Site
												{
													OFFSET 0 0 0
												}
											}
										}
									}
								}
							}
						}
					}
				}
			}
		}
	}
}
MOTION
Frames: 5
Frame Time: 0.03333333
-2.396466 61.733135 3.033821 0.000000 0.000000 0.000000 27.217320 -38.342151 19.215211 -78.284910 -10.903219 22.671749 84.493996 -22.117413 7.803500 -23.008213 5.820410 -18.860927 0.997040 -6.707702 1.407327 0.000000 0.000000 0.000000 27.673490 -39.762131 19.929244 -76.118545 -5.654921 -26.249262 93.218750 14.658807 -14.080671 -34.142565 -19.510744 23.721594 3.994533 12.756706 -29.617596 0.000000 0.000000 0.000000 29.339679 -35.612852 18.064201 10.129752 2.952973 -0.061036 2.844403 -7.858784 -1.594982 0.164370 0.115131 0.039404 0.000000 0.000000 0.000000 3.824720 -5.401949 -1.408357 -0.720208 11.153623 -7.320691 -15.785313 61.791314 -4.514827 0.000000 0.000000 0.000000 3.241078 -7.089749 -2.515442 5.559891 -8.933442 -7.412377 -1.920450 -4.700161 -0.601597 -70.898600 -1.374240 -11.308632 21.236704 -10.440225 13.455902 0.000000 0.000000 0.000000 5.781850 -5.970177 -1.706275 -3.578420 1.835963 12.326012 2.410548 3.928267 5.741760 -14.765255 -2.848597 50.228514 -21.317420 35.922164 11.645145 0.000000 0.000000 0.000000 
-1.961040 58.009800 3.051754 0.000000 0.000000 0.000000 28.873310 -38.139319 20.185135 -83.147096 -14.028766 23.354512 89.464864 -23.340592 8.558002 -23.664188 5.798545 -20.607622 0.873087 -7.215887 1.247789 0.000000 0.000000 0.000000 29.379041 -39.439124 20.794849 -81.341221 -3.344183 -27.347944 98.413190 14.581236 -14.197511 -35.286550 -19.506976 23.091196 4.853567 12.274222 -31.136988 0.000000 0.000000 0.000000 31.195984 -35.370442 18.901936 9.890060 3.255261 -0.286795 3.188150 -7.814112 -1.486454 0.219152 0.156324 0.029823 0.000000 0.000000 0.000000 4.018364 -5.431984 -1.321170 -0.698173 10.967578 -7.408135 -18.658789 60.564968 -2.532400 0.000000 0.000000 0.000000 3.473608 -7.080256 -2.491770 5.685965 -8.676990 -7.178264 -1.718848 -4.652888 -0.248669 -72.249085 -2.784133 -11.524623 21.683282 -9.288140 13.153440 0.000000 0.000000 0.000000 6.063576 -5.902620 -1.624030 -3.245499 2.409875 12.526991 2.685725 3.830142 5.470619 -13.930065 -1.675697 49.894190 -22.011292 38.266398 11.641565 0.000000 0.000000 0.000000 
-1.529971 54.477272 3.174713 0.000000 0.000000 0.000000 30.147407 -37.794227 20.697218 -87.698051 -17.291990 23.937078 93.951240 -24.479038 9.369278 -23.890694 5.414882 -22.360139 0.266564 -7.751511 0.905995 0.000000 0.000000 0.000000 30.916127 -39.406749 21.484176 -86.498246 -0.490056 -27.875781 102.893863 14.607878 -14.110962 -34.687765 -19.446098 22.922784 4.335126 11.881194 -32.032262 0.000000 0.000000 0.000000 32.749347 -35.148932 19.552969 9.663389 3.538031 -0.568321 3.424338 -7.704654 -1.360635 0.222002 0.201102 0.033213 0.000000 0.000000 0.000000 4.151232 -5.383071 -1.255552 -0.510204 10.557217 -7.379136 -20.746764 58.710865 -0.963018 0.000000 0.000000 0.000000 3.644369 -7.012145 -2.446993 5.807630 -8.270761 -7.062836 -1.423629 -4.752727 0.158399 -73.405512 -4.021422 -11.892386 22.300329 -8.222186 12.813651 0.000000 0.000000 0.000000 6.285517 -5.774881 -1.531119 -2.876448 2.955973 12.895939 3.122528 3.616062 5.201716 -12.997841 -0.848524 49.025199 -22.426911 39.908918 11.437237 0.000000 0.000000 0.000000 
-1.123217 51.322029 3.343948 0.000000 0.000000 0.000000 31.119086 -37.423740 20.835916 -91.824968 -20.498648 24.479622 97.662805 -25.417197 9.990913 -23.658481 4.721084 -23.763840 -0.732528 -8.294501 0.243613 0.000000 0.000000 0.000000 32.163330 -39.552809 21.946212 -91.395294 2.694233 -27.778741 106.616780 14.725186 -13.869765 -32.480025 -19.343651 23.189515 2.409848 11.608089 -32.175898 0.000000 0.000000 0.000000 34.027634 -34.953090 20.054047 9.428356 3.795332 -0.906083 3.544862 -7.563882 -1.254492 0.185203 0.217777 0.038625 0.000000 0.000000 0.000000 4.229481 -5.286590 -1.223249 -0.252690 9.984299 -7.243959 -22.251653 56.375097 0.214626 0.000000 0.000000 0.000000 3.749760 -6.913117 -2.388575 5.931215 -7.769268 -7.077878 -1.066838 -4.922046 0.528165 -74.381470 -5.155431 -12.303748 23.031514 -7.163912 12.425160 0.000000 0.000000 0.000000 6.424828 -5.634098 -1.448710 -2.466590 3.419008 13.490798 3.709519 3.364027 4.951144 -11.963340 -0.287409 47.754668 -22.548432 40.782797 11.015221 0.000000 0.000000 0.000000 
-0.814398 48.595177 3.508953 0.000000 0.000000 0.000000 31.787147 -37.044374 20.658010 -95.452693 -23.554245 24.979228 100.588496 -26.183972 10.353696 -22.863671 3.767447 -24.696678 -1.866887 -8.803097 -0.763519 0.000000 0.000000 0.000000 33.091153 -39.699713 22.146200 -95.834582 5.859901 -27.112021 109.650477 14.767810 -13.400136 -29.462554 -19.306056 23.168420 0.140191 11.216105 -31.604224 0.000000 0.000000 0.000000 34.951079 -34.753502 20.346338 9.195807 4.034026 -1.287684 3.580127 -7.410199 -1.181165 0.145153 0.211649 0.054481 0.000000 0.000000 0.000000 4.280010 -5.175741 -1.220171 -0.074678 9.324526 -6.993805 -23.481140 53.764920 1.063970 0.000000 0.000000 0.000000 3.814277 -6.814771 -2.311049 6.072368 -7.284041 -7.251874 -0.620307 -5.056720 0.846220 -75.154177 -6.228972 -12.728384 23.813572 -6.188203 11.994636 0.000000 0.000000 0.000000 6.485259 -5.529058 -1.394274 -2.020727 3.806245 14.343320 4.239674 3.172400 4.675974 -10.719363 0.185568 46.145171 -22.429308 40.974144 10.421819 0.000000 0.000000 0.000000 
